<svg width="40" height="46" viewBox="0 0 40 46" fill="none" xmlns="http://www.w3.org/2000/svg">
<path d="M0 45.9594V0H17.5812C24.5154 0 29.9079 1.98573 33.7587 5.95718C37.6095 9.92863 39.5346 15.545 39.5341 22.8064C39.5341 30.0881 37.6036 35.7677 33.7426 39.8454C29.8816 43.923 24.4942 45.9608 17.5804 45.9586L0 45.9594Z" fill="white"/>
<path d="M19.5433 34.4143C23.8811 34.4584 27.8429 31.9733 29.6703 28.062C28.52 28.561 27.2744 28.8054 26.0197 28.7783C21.1023 28.7714 17.1182 24.8093 17.1129 19.9208C17.1622 16.6135 18.9977 13.5884 21.9173 12.0022C21.1301 11.9025 20.3368 11.8578 19.5433 11.8687C13.2811 11.9264 8.25164 17.02 8.3097 23.2455C8.36701 29.3895 13.3631 34.3563 19.5433 34.4133V34.4143Z" fill="#FF8701"/>
</svg>