<svg xmlns="http://www.w3.org/2000/svg" width="15.154" height="17.617" viewBox="0 0 15.154 17.617">
  <g id="Group_1402" transform="translate(-29.425 -104.994)">
    <path id="Union_1" d="M29.425,122.611V104.994h6.739a8.237,8.237,0,0,1,6.2,2.284,8.9,8.9,0,0,1,2.214,6.459,9.121,9.121,0,0,1-2.22,6.531,8.118,8.118,0,0,1-6.2,2.343Z" transform="translate(0 0)" fill="#0071e3"/>
    <g id="moon" transform="translate(33.158 110.236)">
      <path id="moon_2_" d="M-84.91,64.175A3.5,3.5,0,0,0-81.7,62.152a2.742,2.742,0,0,1-1.156.228,2.824,2.824,0,0,1-2.82-2.821,2.924,2.924,0,0,1,1.521-2.522,5.361,5.361,0,0,0-.752-.043,3.591,3.591,0,0,0-3.557,3.624,3.591,3.591,0,0,0,3.557,3.557h0Z" transform="translate(88.467 -56.994)" fill="#fff"/>
      <path id="Ellipse_117" d="M-64.711,61.386v0Z" transform="translate(72.036 -60.032)" fill="#fff"/>
      <rect id="Ellipse_118" transform="translate(5.928 4.201)" fill="#fff"/>
      <rect id="Ellipse_119" transform="translate(4.263 1.73)" fill="#fff"/>
      <rect id="Ellipse_120" transform="translate(5.928 0.012)" fill="#fff"/>
    </g>
  </g>
</svg>
