<svg fill="currentColor" xmlns="http://www.w3.org/2000/svg" viewBox="0 0 24 24"><path fill="currentColor" d="M12.18 1.281a2.266 2.266 0 0 0-1.625 1.099c-.141.243-.275.658-.275.849 0 .138-.003.14-.13.113-1.307-.282-2.388.296-2.8 1.498l-.089.26-.012 3.534-.012 3.534-.449-.434c-.661-.639-1.05-.817-1.788-.817-.685 0-1.155.194-1.62.667-.455.463-.66.966-.66 1.616 0 .387.075.728.225 1.015.203.392 3.936 5.934 4.212 6.254.708.821 1.839 1.57 2.913 1.927.817.271 1.575.362 3.01.362 1.881-.001 2.741-.156 3.86-.698a6.75 6.75 0 0 0 3.657-4.68c.15-.726.168-1.397.155-5.94l-.013-4.34-.089-.26c-.413-1.202-1.493-1.78-2.8-1.498-.127.027-.13.025-.13-.113 0-.191-.134-.606-.275-.849-.519-.895-1.479-1.279-2.595-1.038-.127.027-.13.025-.13-.11 0-.386-.273-.945-.64-1.312a2.227 2.227 0 0 0-1.9-.639m.66 1.553c.076.041.192.142.259.224l.121.149.02 4.507.02 4.506.093.149c.357.574 1.223.443 1.363-.207.03-.141.044-1.255.044-3.535 0-3.735-.021-3.468.296-3.724.121-.098.192-.122.395-.134.294-.016.461.058.648.289l.121.149.02 3.507.02 3.506.093.149c.357.574 1.223.443 1.363-.207.029-.137.044-.985.044-2.535 0-2.612-.015-2.473.298-2.726.136-.11.176-.121.442-.121s.306.011.442.121c.082.067.183.184.224.26.073.134.075.31.063 4.879-.011 4.387-.017 4.762-.084 5.04-.217.913-.589 1.657-1.165 2.332a5.295 5.295 0 0 1-2.94 1.735c-.297.064-.545.073-1.98.073-1.574 0-1.655-.004-2-.091-1.149-.291-2.103-.863-2.808-1.684-.272-.317-3.9-5.718-3.997-5.95a.853.853 0 0 1 .157-.85c.206-.224.605-.306.899-.183.097.04.523.434 1.229 1.135 1.014 1.008 1.092 1.076 1.27 1.114.437.091.818-.14.906-.549.031-.143.044-1.524.044-4.535 0-4.139.003-4.334.074-4.467.041-.076.141-.192.222-.257.121-.098.192-.122.395-.134.294-.016.461.058.648.289l.121.149.02 3.507.02 3.506.093.149c.311.501 1.055.48 1.311-.037.073-.146.077-.341.096-4.638l.02-4.487.121-.149c.067-.082.183-.183.259-.224a.83.83 0 0 1 .68 0" fill-rule="evenodd"></path></svg>