<svg xmlns="http://www.w3.org/2000/svg" viewBox="0 0 24 24"><path fill="currentColor" d="M7.533 2.282c-2.527.207-4.649 2.073-5.15 4.529-.124.602-.142 1.271-.142 5.189s.018 4.587.142 5.189c.445 2.183 2.245 3.983 4.428 4.428.602.124 1.271.142 5.189.142s4.587-.018 5.189-.141c2.179-.445 3.984-2.25 4.429-4.429.123-.602.141-1.271.141-5.189s-.018-4.587-.141-5.189c-.292-1.427-1.211-2.78-2.438-3.589-.858-.566-1.705-.854-2.771-.942-.546-.045-8.323-.044-8.876.002m9.487 1.583c1.616.474 2.683 1.556 3.128 3.175.067.243.072.568.072 4.96s-.005 4.717-.072 4.96c-.229.832-.597 1.484-1.15 2.038-.554.553-1.206.921-2.038 1.15-.243.067-.568.072-4.96.072s-4.717-.005-4.96-.072c-.832-.229-1.484-.597-2.038-1.15a4.422 4.422 0 0 1-1.146-2.038c-.073-.286-.076-.511-.076-4.98V7.3l.09-.326a4.39 4.39 0 0 1 1.132-1.972A4.397 4.397 0 0 1 7.4 3.786c.055-.009 2.179-.013 4.72-.01 4.531.007 4.625.009 4.9.089M8.291 6.843c-.242.095-.525.353-.658.602l-.093.175v8.76l.093.175c.138.257.415.507.67.603.215.08.289.082 3.12.082 3.285 0 3.256.002 3.877-.3a2.893 2.893 0 0 0 1.074-.873c.385-.507.566-.99.612-1.627.064-.898-.234-1.658-.915-2.335l-.357-.355.099-.105c.191-.203.415-.6.526-.931.146-.436.184-1.135.087-1.602-.208-1.006-.997-1.88-2.006-2.223l-.32-.108-2.8-.01c-2.729-.008-2.805-.007-3.009.072m5.492 1.44c.31.057.576.205.801.445.712.762.466 1.961-.495 2.405-.187.086-.217.087-2.639.098L9 11.242V8.24h2.273c1.463 0 2.357.015 2.51.043m.637 4.529c.271.085.474.212.663.414.707.758.472 1.938-.474 2.387l-.269.127-2.67.012-2.67.011V12.76l2.63.001c2.005 0 2.668.012 2.79.051" fill-rule="evenodd"/></svg>
