<svg viewBox="0 0 24 24" xmlns="http://www.w3.org/2000/svg"><path fill="currentColor" d="M6.452 6.821c-1.416.259-2.595 1.015-3.339 2.14-.581.879-.837 1.726-.839 2.779-.002.844.139 1.459.505 2.205.721 1.468 2.074 2.466 3.718 2.744.184.032.812.049 1.803.05 1.341.001 1.534-.007 1.64-.065.242-.134.42-.419.42-.674a.886.886 0 0 0-.212-.513c-.212-.227-.197-.225-1.948-.249l-1.62-.022-.38-.128c-1.121-.377-1.923-1.179-2.284-2.288a3.75 3.75 0 0 1-.099-1.721c.14-.697.451-1.267.983-1.799.427-.427.794-.659 1.331-.843.494-.168.829-.197 2.299-.197 1.289 0 1.352-.004 1.52-.085.26-.126.39-.344.39-.655 0-.311-.13-.529-.39-.655-.17-.082-.223-.085-1.693-.081-1.064.003-1.603.02-1.805.057m7.595.025c-.258.127-.387.346-.387.654 0 .311.13.529.39.655.168.081.231.085 1.52.085 1.47 0 1.805.029 2.299.197.537.184.904.416 1.331.843.532.532.843 1.102.983 1.799a3.75 3.75 0 0 1-.099 1.721c-.361 1.109-1.163 1.911-2.284 2.288l-.38.128-1.62.022c-1.751.024-1.736.022-1.948.249a.886.886 0 0 0-.212.513c0 .255.178.54.42.674.106.058.299.066 1.64.065.991-.001 1.619-.018 1.803-.05.767-.129 1.614-.484 2.202-.921a4.935 4.935 0 0 0 2.021-4.026c-.003-1.057-.258-1.902-.839-2.781-.621-.939-1.674-1.709-2.738-2.001-.657-.18-.896-.2-2.449-.2-1.433 0-1.486.003-1.653.086m-6.232 4.432c-.484.115-.717.726-.432 1.13a.939.939 0 0 0 .277.248c.159.083.191.084 4.219.095 2.865.008 4.122-.002 4.274-.034.749-.155.777-1.244.036-1.431-.21-.052-8.155-.06-8.374-.008" fill-rule="evenodd"/></svg>
