<svg viewBox="0 0 24 24" xmlns="http://www.w3.org/2000/svg"><path fill="currentColor" d="M11.32 2.281a9.812 9.812 0 0 0-5.418 2.111c-.363.287-1.223 1.147-1.51 1.51-1.12 1.417-1.801 3.021-2.055 4.838-.09.647-.09 1.874.001 2.52.254 1.817.936 3.423 2.054 4.838.287.363 1.147 1.223 1.51 1.51A10.013 10.013 0 0 0 9.9 21.516c1.326.29 2.874.29 4.2 0a10.013 10.013 0 0 0 3.998-1.908c.363-.287 1.223-1.147 1.51-1.51a10.013 10.013 0 0 0 1.908-3.998c.29-1.326.29-2.874 0-4.2a10.013 10.013 0 0 0-1.908-3.998c-.287-.363-1.147-1.223-1.51-1.51a9.843 9.843 0 0 0-6.778-2.111m-.08 3.239v1.72H8.26c-1.639 0-2.98-.012-2.98-.026 0-.049.459-.598.778-.929a8.301 8.301 0 0 1 4.543-2.422c.165-.03.376-.056.469-.059l.17-.004v1.72m2.441-1.598c1.228.253 2.593.9 3.503 1.659.986.823 1.68 1.695 2.218 2.793A7.864 7.864 0 0 1 20.24 12a7.864 7.864 0 0 1-.838 3.626c-.538 1.098-1.232 1.97-2.218 2.793-1.083.904-2.829 1.644-4.173 1.769l-.251.024V3.788l.251.024c.138.013.44.062.67.11M11.24 10v1.24H3.8v-.133c0-.377.249-1.42.487-2.037l.119-.31h6.834V10m0 4v1.24H4.406l-.119-.31c-.238-.617-.487-1.66-.487-2.037v-.133h7.44V14m0 4.486v1.726l-.251-.024c-.761-.071-1.789-.38-2.615-.786-.875-.429-1.445-.833-2.167-1.537-.31-.303-.927-1.021-.927-1.079 0-.014 1.341-.026 2.98-.026h2.98v1.726" fill-rule="evenodd"/></svg>
