<svg xmlns="http://www.w3.org/2000/svg" viewBox="0 0 24 24"><path d="M11.34 2.281C7.073 2.553 3.439 5.66 2.499 9.84a10.086 10.086 0 0 0 0 4.32 9.76 9.76 0 0 0 7.341 7.341c1.393.313 2.93.312 4.336-.003 3.289-.739 5.985-3.188 7.068-6.422a9.928 9.928 0 0 0 .257-5.236 9.76 9.76 0 0 0-7.341-7.341 10.445 10.445 0 0 0-2.82-.218m1.621 1.521a8.318 8.318 0 0 1 5.894 3.608c.543.802 1.034 1.968 1.222 2.899.124.611.163 1.019.163 1.691 0 1.332-.263 2.465-.845 3.642a8.146 8.146 0 0 1-3.753 3.753c-1.177.582-2.31.845-3.642.845a7.867 7.867 0 0 1-3.626-.836 8.266 8.266 0 0 1-4.572-6.443c-.054-.436-.054-1.486 0-1.922.195-1.582.857-3.123 1.846-4.299.337-.4.751-.811 1.168-1.159 1.084-.904 2.682-1.585 4.168-1.775.395-.051 1.579-.053 1.977-.004m-1.262 2.011c-.15.069-.368.313-.408.458-.017.06-.031 2.656-.031 5.769 0 6.313-.025 5.767.277 6.032.179.157.335.186.852.154 2.505-.153 4.703-1.825 5.504-4.186.261-.767.323-1.159.323-2.04s-.062-1.273-.323-2.04C17.08 7.564 14.82 5.873 12.3 5.776c-.358-.014-.511-.005-.601.037m1.751 1.668a5.68 5.68 0 0 1 1.21.578c.309.202 1.079.972 1.281 1.281 1.272 1.95 1.013 4.444-.627 6.045a4.708 4.708 0 0 1-1.391.952c-.346.152-.954.343-1.087.343-.074 0-.076-.119-.076-4.685V7.31l.17.027c.093.015.328.08.52.144" fill-rule="evenodd" fill="currentColor"/></svg>