<svg viewBox="0 0 24 24" xmlns="http://www.w3.org/2000/svg"><path d="M11.16 3.309c-.367.041-1.176.229-1.613.375A8.735 8.735 0 0 0 3.945 9.4c-1.14 3.676.296 7.724 3.491 9.839 1.425.944 2.874 1.409 4.578 1.469 3.439.121 6.567-1.751 8.115-4.858.332-.667.377-.885.236-1.161-.201-.394-.549-.491-1.128-.316-.673.204-.997.247-1.857.245-.673-.002-.865-.016-1.211-.091a6.43 6.43 0 0 1-1.521-.509c-1.807-.856-3.105-2.512-3.534-4.509-.103-.481-.144-1.569-.077-2.08.13-.995.49-1.941 1.086-2.857.214-.328.259-.5.195-.738-.062-.233-.143-.342-.337-.456-.169-.098-.394-.118-.821-.069M10.063 5.29c-.162.368-.375 1.13-.467 1.67-.132.772-.112 1.965.045 2.773a7.9 7.9 0 0 0 3.439 5.118 8.035 8.035 0 0 0 4.75 1.273c.226-.013.41-.011.41.005 0 .069-.669.851-.951 1.111a7.356 7.356 0 0 1-4.229 1.949c-.475.054-.657.057-1.2.018-1.077-.077-1.872-.287-2.766-.731a7.234 7.234 0 0 1-3.957-7.616 7.273 7.273 0 0 1 3.914-5.353c.378-.187.96-.421 1.057-.425.031-.001.015.072-.045.208" fill-rule="evenodd" fill="currentColor"/></svg>