<svg data-name="Layer 3" xmlns="http://www.w3.org/2000/svg" viewBox="0 0 24 24"><path fill="currentColor" d="M10.815 2.277c-.486.121-.717.727-.432 1.131a.939.939 0 0 0 .277.248c.158.083.209.084 3.58.104l3.42.02.32.11c.538.184.878.399 1.304.826.427.426.642.766.826 1.304l.11.32.012 2.413.012 2.413-.252-.203c-.593-.481-1.196-.689-1.992-.689-.757 0-1.265.161-1.86.588-.132.095-1.112 1.046-2.179 2.114l-1.939 1.942-.441-.432c-.531-.521-.785-.715-1.181-.903a3.377 3.377 0 0 0-2.12-.243 4.121 4.121 0 0 0-1.147.502c-.106.071-.908.842-1.783 1.713l-1.59 1.583v-3.047c0-2.074-.014-3.113-.044-3.253-.141-.656-1.003-.787-1.363-.207l-.093.149v3.36c0 3.09.006 3.389.073 3.72.397 1.966 1.841 3.41 3.807 3.807.338.068.701.073 5.86.073 5.159 0 5.522-.005 5.86-.073 1.966-.397 3.41-1.841 3.807-3.807.068-.338.073-.701.073-5.86 0-5.159-.005-5.522-.073-5.86-.39-1.929-1.785-3.356-3.703-3.787-.374-.084-.467-.087-3.704-.097-1.826-.006-3.376.004-3.445.021M4.18 3.835a.61.61 0 0 0-.358.375.742.742 0 0 0 0 .581c.036.089.274.363.589.679l.528.53-.528.53c-.546.549-.652.707-.65.979.001.173.112.439.225.539a.918.918 0 0 0 .514.192c.263 0 .426-.109.97-.651L6 7.061l.53.528c.549.546.707.652.979.65.173-.001.439-.112.539-.225A.918.918 0 0 0 8.24 7.5c0-.263-.109-.426-.651-.97L7.061 6l.528-.53c.542-.544.651-.707.651-.97a.918.918 0 0 0-.192-.514c-.1-.113-.366-.224-.539-.225-.272-.002-.43.104-.979.65L6 4.939l-.53-.528c-.316-.315-.59-.553-.679-.589a.756.756 0 0 0-.611.013m14.515 8.075c.231.11.378.232.912.76l.637.628-.013 2.181-.012 2.181-.109.32c-.184.537-.399.878-.826 1.304-.534.535-1.13.846-1.787.934l-.203.028-2.11-2.13-2.11-2.13 1.913-1.914c1.052-1.053 1.979-1.96 2.06-2.016a2.49 2.49 0 0 1 .38-.2c.201-.084.285-.096.613-.087.333.01.414.027.655.141m-9.198 2.911c.108.032.279.107.38.165.179.104 1.16 1.071 3.943 3.885l1.356 1.371-4.418-.011-4.418-.011-.32-.11c-.552-.189-.877-.397-1.33-.852-.225-.227-.41-.435-.41-.464 0-.029.832-.884 1.85-1.899 1.86-1.856 1.965-1.949 2.368-2.076.225-.071.762-.07.999.002" fill-rule="evenodd"/></svg>
