<svg viewBox="0 0 24 24" xmlns="http://www.w3.org/2000/svg"><path fill="currentColor" d="M8.98 2.266c-.7.065-1.263.26-1.86.646-.242.157-3.724 3.595-4.041 3.991a4.019 4.019 0 0 0-.766 1.679c-.077.403-.077 6.433 0 6.836.111.588.401 1.224.766 1.679.317.396 3.799 3.834 4.041 3.991.469.303.962.505 1.464.6.4.075 6.432.075 6.832 0a4.107 4.107 0 0 0 1.464-.6c.242-.157 3.724-3.595 4.041-3.991a4.019 4.019 0 0 0 .766-1.679c.076-.402.077-6.433.001-6.834a3.993 3.993 0 0 0-.619-1.484c-.175-.262-3.567-3.696-3.972-4.021a4.091 4.091 0 0 0-1.562-.747c-.241-.058-.652-.067-3.335-.073a180.917 180.917 0 0 0-3.22.007m6.358 1.555c.545.142.584.175 2.625 2.216 1.58 1.581 1.924 1.944 2.026 2.143.256.496.251.418.251 3.82 0 3.402.005 3.324-.251 3.82-.102.199-.446.562-2.026 2.143-2.046 2.046-2.076 2.071-2.629 2.214-.363.093-6.313.095-6.672.002-.545-.142-.584-.175-2.625-2.216-2.041-2.041-2.074-2.08-2.216-2.625-.092-.352-.092-6.324 0-6.676.142-.545.175-.584 2.216-2.625 2.029-2.029 2.08-2.072 2.607-2.214.332-.089 6.353-.091 6.694-.002m.562 3.438a1.795 1.795 0 0 1-.16.04c-.091.02-1.119 1.024-4.212 4.113-2.25 2.249-4.13 4.149-4.177 4.224-.119.19-.117.541.005.738.176.284.484.409.833.338.186-.039.304-.152 4.301-4.145 2.349-2.347 4.138-4.164 4.175-4.242a.765.765 0 0 0-.249-.932c-.142-.098-.417-.169-.516-.134" fill-rule="evenodd"/></svg>
